<?xml version="1.0" encoding="UTF-8"?>
<svg id="Layer_1" data-name="Layer 1" xmlns="http://www.w3.org/2000/svg" viewBox="0 0 677.03 693.95">
  <g id="Two_stars_right" data-name="Two stars right">
    <path d="M656.27,608.03c-.62,0-1.11-.48-1.22-1.2h0l-1.9-11.68c-.24-1.48-1.2-2.62-2.44-2.91l-9.8-2.27c-.6-.14-1.01-.73-1.01-1.46s.41-1.32,1.01-1.46l9.8-2.27c1.24-.29,2.2-1.43,2.44-2.91l1.9-11.68c.12-.72.61-1.2,1.22-1.2h0c.62,0,1.11.48,1.22,1.2l1.9,11.68c.24,1.48,1.2,2.62,2.44,2.91l9.8,2.27c.6.14,1.01.73,1.01,1.46s-.41,1.32-1.01,1.46l-9.8,2.27c-1.24.29-2.2,1.43-2.44,2.91l-1.9,11.68c-.12.72-.61,1.2-1.22,1.2ZM655.69,606.68c.07.42.35.57.58.57s.51-.15.58-.57l1.9-11.68c.29-1.79,1.45-3.18,2.96-3.52l9.8-2.27c.35-.08.48-.41.48-.69s-.13-.61-.48-.69l-9.8-2.27c-1.51-.35-2.67-1.73-2.96-3.52l-1.9-11.68c-.07-.42-.35-.57-.58-.57s-.51.15-.58.57l-1.9,11.68c-.29,1.79-1.45,3.18-2.96,3.52l-9.8,2.27c-.35.08-.48.41-.48.69s.13.61.48.69l9.8,2.27c1.51.35,2.67,1.73,2.96,3.52l1.9,11.68Z" fill="#fff"/>
    <path d="M669.62,613.04c-.36,0-.65-.29-.72-.71h0l-.84-5.15c-.09-.57-.46-1-.93-1.11l-4.33-1c-.35-.08-.59-.43-.59-.86s.24-.78.59-.86l4.33-1c.47-.11.84-.55.93-1.11l.84-5.15c.07-.42.36-.71.72-.71h0c.36,0,.65.29.72.71l.84,5.15c.09.57.46,1,.93,1.11l4.33,1c.35.08.59.43.59.86s-.24.78-.59.86l-4.33,1c-.47.11-.84.55-.93,1.11l-.84,5.15c-.07.42-.36.71-.72.71ZM669.54,612.19s.01.08.08.08.07-.06.08-.08l.84-5.15c.14-.88.71-1.56,1.45-1.73l4.33-1s.06-.01.06-.09-.05-.09-.06-.09l-4.33-1c-.74-.17-1.31-.85-1.45-1.73l-.84-5.15s-.01-.08-.08-.08h0c-.07,0-.07.06-.08.08l-.84,5.15c-.14.88-.71,1.56-1.45,1.73l-4.33,1s-.06.01-.06.09.05.09.06.09l4.33,1c.74.17,1.31.85,1.45,1.73l.84,5.15Z" fill="#fff"/>
  </g>
  <g id="Sun_left" data-name="Sun left">
    <path d="M170.92,390.06h0,0ZM182.45,390.4h0,0ZM159.84,394.31h0,0ZM193.36,395.34h0,0ZM180.52,398.97c-.06.96-.12,1.89-.17,2.74-.72,11.33-.73,13.6.81,14.24.15.06.31.09.47.09,1.3,0,2.26-1.56,6.78-11.14.32-.68.67-1.42,1.03-2.18-.28.86-.55,1.69-.8,2.45-3.44,10.53-3.99,12.7-2.68,13.93.26.25.58.38.92.38,1.22,0,2.93-1.7,8.59-7.97.49-.54,1.03-1.14,1.59-1.76-.48.72-.94,1.42-1.37,2.05-5.81,8.69-6.86,10.54-5.9,12.24.22.38.64.84,1.42.84,1.41,0,4.49-1.63,9.42-4.28.6-.33,1.25-.67,1.91-1.03-.59.47-1.17.92-1.7,1.33-7.64,5.97-9.09,7.32-8.59,9.32.39,1.53,1.82,1.65,3.39,1.65,1.92,0,4.85-.31,7.69-.61.71-.08,1.43-.15,2.14-.22-.66.2-1.31.4-1.9.58-8.76,2.65-10.47,3.35-10.47,5.47s1.72,2.82,10.47,5.47c.59.18,1.23.37,1.9.58-.71-.07-1.42-.15-2.14-.22-2.83-.3-5.77-.61-7.69-.61-1.56,0-3,.13-3.39,1.65-.51,2,.95,3.35,8.59,9.32.53.41,1.11.86,1.7,1.33-.66-.35-1.31-.7-1.91-1.03-4.92-2.66-8.01-4.28-9.41-4.28-.78,0-1.2.46-1.42.84-.96,1.7.09,3.55,5.9,12.24.42.63.89,1.33,1.37,2.05-.56-.62-1.11-1.22-1.6-1.76-5.67-6.27-7.37-7.96-8.59-7.96-.34,0-.66.13-.92.38-1.32,1.23-.76,3.4,2.68,13.93.25.76.52,1.59.8,2.45-.36-.77-.72-1.51-1.04-2.19-4.53-9.58-5.48-11.14-6.78-11.14-.16,0-.32.03-.47.09-1.54.64-1.53,2.92-.81,14.24.05.85.11,1.78.17,2.74-.16-.85-.31-1.68-.45-2.44-2.06-11.26-2.61-13.47-4.26-13.47s-2.2,2.21-4.26,13.47c-.14.75-.29,1.58-.45,2.44.06-.96.12-1.89.17-2.74.72-11.33.73-13.6-.81-14.24-.15-.06-.31-.09-.47-.09-1.3,0-2.26,1.56-6.78,11.14-.32.67-.67,1.42-1.03,2.18.28-.86.55-1.69.8-2.45,3.44-10.53,3.99-12.7,2.68-13.93-.26-.25-.58-.38-.92-.38-1.22,0-2.93,1.7-8.6,7.97-.49.54-1.03,1.14-1.59,1.76.48-.72.94-1.42,1.37-2.05,5.81-8.69,6.86-10.54,5.9-12.24-.22-.38-.64-.84-1.42-.84-1.41,0-4.49,1.63-9.42,4.29-.6.33-1.25.67-1.9,1.02.59-.47,1.17-.92,1.7-1.33,7.64-5.97,9.09-7.32,8.59-9.32-.39-1.53-1.82-1.65-3.39-1.65-1.92,0-4.85.31-7.69.61-.71.08-1.43.15-2.13.22.66-.2,1.31-.4,1.9-.58,8.76-2.65,10.47-3.35,10.47-5.47s-1.72-2.82-10.47-5.47c-.59-.18-1.23-.37-1.9-.58.71.07,1.42.15,2.14.22,2.83.3,5.77.61,7.69.61,1.56,0,3-.13,3.39-1.65.51-2-.95-3.35-8.59-9.32-.53-.41-1.1-.86-1.7-1.33.66.35,1.3.7,1.91,1.03,4.92,2.66,8.01,4.28,9.41,4.28.78,0,1.2-.46,1.42-.84.96-1.7-.09-3.55-5.9-12.23-.42-.63-.89-1.33-1.37-2.05.56.61,1.1,1.22,1.6,1.76,5.67,6.27,7.38,7.97,8.59,7.97.34,0,.66-.13.92-.38,1.32-1.23.76-3.4-2.68-13.93-.25-.76-.52-1.59-.8-2.45.36.76.72,1.51,1.04,2.19,4.53,9.58,5.48,11.14,6.78,11.14.16,0,.32-.03.47-.09,1.54-.64,1.53-2.92.81-14.24-.05-.85-.11-1.78-.17-2.74.16.85.31,1.68.45,2.44,2.06,11.26,2.61,13.47,4.26,13.47s2.2-2.21,4.26-13.47c.14-.75.29-1.58.45-2.44h0ZM202.52,404.35h0,0ZM169.94,389.13s-.02,0-.03,0c-1.47.3,1.53,24.64.15,25.22-.02,0-.04.01-.06.01-1.55,0-9.73-20.55-11.26-20.55-.03,0-.06,0-.08.02-1.32.87,7.41,22.8,6.23,23.91-.04.03-.09.05-.15.05-1.81,0-13.66-15.1-15.46-15.11-.07,0-.13.02-.17.07-1.04,1.34,12.52,18.75,11.65,20.29-.06.1-.18.14-.36.14-2.43,0-15.42-8.32-17.86-8.33-.2,0-.33.06-.38.18-.67,1.68,16.41,12.84,15.95,14.66-.09.35-.9.48-2.14.48-3.75,0-11.46-1.21-15.26-1.21-1.32,0-2.17.15-2.21.54-.23,1.85,18.7,5.65,18.7,7.58s-18.93,5.74-18.7,7.58c.05.39.9.54,2.21.54,3.8,0,11.51-1.21,15.26-1.21,1.24,0,2.05.13,2.14.48.46,1.82-16.62,12.98-15.95,14.66.05.12.18.18.38.18,2.44,0,15.43-8.33,17.86-8.33.18,0,.3.05.36.14.87,1.54-12.69,18.95-11.65,20.29.04.05.09.07.17.07,1.8,0,13.65-15.11,15.46-15.11.06,0,.11.02.15.05,1.19,1.11-7.55,23.05-6.23,23.91.02.02.05.02.08.02,1.53,0,9.7-20.55,11.26-20.55.02,0,.04,0,.06.01,1.39.58-1.62,24.92-.15,25.22,0,0,.02,0,.03,0,1.45,0,4.38-24.06,5.87-24.06s4.42,24.06,5.87,24.06c0,0,.02,0,.03,0,1.47-.3-1.53-24.64-.15-25.22.02,0,.04-.01.06-.01,1.55,0,9.73,20.55,11.26,20.55.03,0,.06,0,.08-.02,1.32-.87-7.41-22.8-6.23-23.91.04-.03.09-.05.15-.05,1.81,0,13.66,15.11,15.46,15.11.07,0,.13-.02.17-.07,1.04-1.34-12.52-18.75-11.65-20.29.06-.1.18-.14.36-.14,2.43,0,15.42,8.33,17.86,8.33.2,0,.33-.06.38-.18.67-1.68-16.41-12.84-15.95-14.66.09-.35.9-.48,2.14-.48,3.75,0,11.46,1.21,15.26,1.21,1.32,0,2.17-.15,2.21-.54.23-1.85-18.7-5.65-18.7-7.58s18.93-5.74,18.7-7.58c-.05-.39-.9-.54-2.21-.54-3.8,0-11.51,1.21-15.26,1.21-1.24,0-2.05-.13-2.14-.48-.46-1.82,16.62-12.98,15.95-14.66-.05-.12-.18-.18-.38-.18-2.44,0-15.43,8.33-17.86,8.33-.18,0-.3-.05-.36-.14-.87-1.54,12.69-18.95,11.65-20.29-.04-.05-.09-.07-.17-.07-1.8,0-13.65,15.11-15.46,15.11-.06,0-.11-.02-.15-.05-1.19-1.11,7.55-23.05,6.23-23.91-.03-.02-.05-.02-.08-.02-1.53,0-9.7,20.55-11.26,20.55-.02,0-.04,0-.06-.01-1.39-.58,1.62-24.92.15-25.22,0,0-.02,0-.03,0-1.45,0-4.38,24.06-5.87,24.06s-4.42-24.05-5.87-24.06h0Z" fill="#fff"/>
  </g>
  <g>
    <ellipse cx="560.43" cy="494.95" rx="8.16" ry="9.79" fill="#fff"/>
    <ellipse cx="527.26" cy="521.14" rx="4.08" ry="4.89" fill="#fff"/>
    <ellipse cx="551.69" cy="520.39" rx="4.08" ry="4.89" fill="#fff"/>
  </g>
  <g>
    <g>
      <path d="M60.62,543s.07,43.97,11.99,56.6c11.32,11.99,33.45,11.99,33.45,11.99,0,0-21.77,0-33.45,11.99-12.12,12.44-11.99,56.6-11.99,56.6,0,0,.17-44.2-11.99-56.6-10.27-10.47-33.45-11.99-33.45-11.99,0,0,22.5,0,33.45-11.99,11.71-12.82,11.99-56.6,11.99-56.6Z" fill="#fff"/>
      <path d="M99.64,619.25s.04,23.09,6.3,29.72c5.95,6.3,17.57,6.3,17.57,6.3,0,0-11.43,0-17.57,6.3-6.36,6.53-6.3,29.72-6.3,29.72,0,0,.09-23.21-6.3-29.72-5.39-5.5-17.57-6.3-17.57-6.3,0,0,11.82,0,17.57-6.3,6.15-6.73,6.3-29.72,6.3-29.72Z" fill="#fff"/>
    </g>
    <path d="M142.43,555.89s.02,15.03,4.1,19.35c3.87,4.1,11.44,4.1,11.44,4.1,0,0-7.44,0-11.44,4.1-4.14,4.25-4.1,19.35-4.1,19.35,0,0,.06-15.11-4.1-19.35-3.51-3.58-11.44-4.1-11.44-4.1,0,0,7.69,0,11.44-4.1,4-4.38,4.1-19.35,4.1-19.35Z" fill="#fff"/>
    <path d="M36.92,666.4s.01,8.83,2.41,11.37c2.27,2.41,6.72,2.41,6.72,2.41,0,0-4.37,0-6.72,2.41-2.43,2.5-2.41,11.37-2.41,11.37,0,0,.03-8.88-2.41-11.37-2.06-2.1-6.72-2.41-6.72-2.41,0,0,4.52,0,6.72-2.41,2.35-2.57,2.41-11.37,2.41-11.37Z" fill="#fff"/>
    <path d="M9.13,641.5s.01,8.83,2.41,11.37c2.27,2.41,6.72,2.41,6.72,2.41,0,0-4.37,0-6.72,2.41-2.43,2.5-2.41,11.37-2.41,11.37,0,0,.03-8.88-2.41-11.37-2.06-2.1-6.72-2.41-6.72-2.41,0,0,4.52,0,6.72-2.41,2.35-2.57,2.41-11.37,2.41-11.37Z" fill="#fff"/>
    <path d="M84.9,551.79s.01,8.83,2.41,11.37c2.27,2.41,6.72,2.41,6.72,2.41,0,0-4.37,0-6.72,2.41-2.43,2.5-2.41,11.37-2.41,11.37,0,0,.03-8.88-2.41-11.37-2.06-2.1-6.72-2.41-6.72-2.41,0,0,4.52,0,6.72-2.41,2.35-2.57,2.41-11.37,2.41-11.37Z" fill="#fff"/>
    <path d="M32.35,634.61s0,4.42,1.2,5.68c1.14,1.2,3.36,1.2,3.36,1.2,0,0-2.19,0-3.36,1.2-1.22,1.25-1.2,5.68-1.2,5.68,0,0,.02-4.44-1.2-5.68-1.03-1.05-3.36-1.2-3.36-1.2,0,0,2.26,0,3.36-1.2,1.18-1.29,1.2-5.68,1.2-5.68Z" fill="#fff"/>
    <path d="M126.89,627.72s0,4.42,1.2,5.68c1.14,1.2,3.36,1.2,3.36,1.2,0,0-2.19,0-3.36,1.2-1.22,1.25-1.2,5.68-1.2,5.68,0,0,.02-4.44-1.2-5.68-1.03-1.05-3.36-1.2-3.36-1.2,0,0,2.26,0,3.36-1.2,1.18-1.29,1.2-5.68,1.2-5.68Z" fill="#fff"/>
    <path d="M41.48,558.68s0,4.42,1.2,5.68c1.14,1.2,3.36,1.2,3.36,1.2,0,0-2.19,0-3.36,1.2-1.22,1.25-1.2,5.68-1.2,5.68,0,0,.02-4.44-1.2-5.68-1.03-1.05-3.36-1.2-3.36-1.2,0,0,2.26,0,3.36-1.2,1.18-1.29,1.2-5.68,1.2-5.68Z" fill="#fff"/>
    <path d="M142.43,651.4s0,4.42,1.2,5.68c1.14,1.2,3.36,1.2,3.36,1.2,0,0-2.19,0-3.36,1.2-1.22,1.25-1.2,5.68-1.2,5.68,0,0,.02-4.44-1.2-5.68-1.03-1.05-3.36-1.2-3.36-1.2,0,0,2.26,0,3.36-1.2,1.18-1.29,1.2-5.68,1.2-5.68Z" fill="#fff"/>
  </g>
  <g>
    <g>
      <path d="M499.36,326.54c-.1,2.66-2.35,3.17-4.16,3.8-4.98,1.73-10.1,1.3-15.05,0-7.27-1.93-14.06-5.03-20.44-9.08-3.99-2.53-8.59-3.73-12.97-5.41-4.9-1.87-9.86-3.77-14.46-6.26-7.01-3.79-14.69-4.6-22.24-6.1-4.25-.84-8.5-2.32-12.72-2.48-5.55-.22-8.29-3.92-11.86-6.96-10.94-9.3-19.56-20.61-27.95-32.07-3.67-5-8.78-6.54-14.03-8.16-9.42-2.9-19.1-4.81-28.67-7.17-8.29-2.05-16.56-4.15-24.86-6.15-8.63-2.09-17.24-4.19-26.01-5.73-9.83-1.72-19.63-3.51-29.58-4.44-5.29-.5-10.46.41-15.68.59-3.3.11-6.74.64-10.07.85-11.13.72-22.26,1.57-33.41,2-6.81.26-13.6.54-20.41.46-1.79-.02-2.82.42-3.92,2.06-4.35,6.48-8.06,13.34-11.65,20.22-5.08,9.72-9.95,19.57-14.59,29.53-3.99,8.57-7.65,17.29-11.18,26.05-.33.83-1.04,1.87-.35,2.93" fill="none" stroke="#000" stroke-linecap="round" stroke-linejoin="round" stroke-width="2"/>
      <path d="M356.2,259.1c2.99-.35,5.22,1.6,7.67,2.71,7.96,3.62,15.74,7.64,23.99,10.57,10.59,3.76,21.38,6.86,32.22,9.83,4.09,1.12,8.19,2.35,11.85,4.67,11.74,7.45,24.67,12.57,36.98,18.92,3.54,1.83,6.87,4.04,10.38,5.85,5.72,2.95,11.41,5.97,17.1,8.98,1.36.72,2.7,1.57,3.85,2.64.49.46.88,1.2.55,1.73-.35.55-.78,1.4-1.72,1.21-6.7-1.37-13.14-3.25-17.45-9.17-.91-1.24-.79-2.45.29-3.55" fill="none" stroke="#000" stroke-linecap="round" stroke-linejoin="round" stroke-width="2"/>
      <path d="M234.93,287.49c-1.24.47-2.51.7-3.85.6-5.87-.44-11.68.4-17.44,1.26-6.38.95-12.68,2.52-18.93,4.12-13.44,3.43-26.85,6.97-40.22,10.67-10.58,2.93-21.1,6.11-31.69,9.03-3.1.85-6.11,2.31-9.45,2.12-1.1-.06-1.25.91-1.78,1.49" fill="none" stroke="#000" stroke-linecap="round" stroke-linejoin="round" stroke-width="2"/>
      <path d="M217.48,262.35c.79,3.55,3.29,6.1,5.36,8.85,7.11,9.46,14.67,18.57,21.27,28.41,4.01,5.98,10.03,9.63,15.98,13.29,5.04,3.1,9.93,6.4,14.77,9.79,8.11,5.68,13.52,13.59,18.03,22.19,3.91,7.46,8.9,14.25,13.1,21.54,2.53,4.4,4.5,9.01,6.41,13.66,1.81,4.4,3.39,5.7,7.43,5.62,3.57-.08,4.84-2.83,6.18-5.35,3.04-5.72,4.3-11.92,3.5-18.31-.71-5.75-3-11.08-5.54-16.28-3.08-6.32-8.03-11.3-12.21-16.79-4.38-5.75-7.26-12.03-8.73-19-.32-1.52-.49-3.33.83-4.72" fill="none" stroke="#000" stroke-linecap="round" stroke-linejoin="round" stroke-width="2"/>
      <path d="M394.06,301.1c1.67,3.85,5.41,5.66,8.33,8.23,7.93,6.98,15.28,14.37,21.02,23.38,7.29,11.43,15.97,21.88,23.88,32.88,5.55,7.73,11.25,15.36,16.02,23.64,1.85,3.22,1.8,3.65-1.81,4.45-4.81-3.3-8.64-7.48-11.21-12.73-.6-1.22-1.1-2.52-1.49-3.84-.7-2.31-.5-4.35,2.06-5.47" fill="none" stroke="#000" stroke-linecap="round" stroke-linejoin="round" stroke-width="2"/>
      <path d="M413.88,355.82c-1.3,2.84.44,5.43,1.03,7.95,1.67,7.1,3.33,14.21,5.05,21.29.96,3.95,2.41,7.8,3.19,11.85.38,1.98,1.28,4.32-.21,5.5-1.97,1.56-4.82.86-6.95-.23-3.65-1.87-6.06-5.07-8.38-8.46-5.37-7.87-7.38-17.05-10.6-25.77-3.55-9.62-7.05-19.27-12.38-28.12-.55-.92-1.08-1.69-2.1-2.05" fill="none" stroke="#000" stroke-linecap="round" stroke-linejoin="round" stroke-width="2"/>
      <path d="M371.58,318.55c.85-.06,1.69.08,2.36.6,9.19,7.15,19.01,13.55,27.16,21.93,4.32,4.44,8.18,9.5,12.65,13.67,10.05,9.38,17.7,20.73,27.07,30.62,3.59,3.79,7.51,7.41,12.71,8.82,2.35.63,5.12,2.38,7.37-.51" fill="none" stroke="#000" stroke-linecap="round" stroke-linejoin="round" stroke-width="2"/>
      <path d="M307.99,290.16c-.89,1.48-1.84,2.92-2.65,4.44-1.75,3.28-2.46,6.71-1.22,10.32.56.43,1.32.54,1.78.29,5.84-3.26,11.29.36,16.87,1,7.95.9,14.93,4.9,22.16,7.99,1.98.85,2.61,3.4,3.52,5.27,3.64,7.55,6.98,15.25,10.85,22.67,1.7,3.26,1.76,6.62,2.07,9.85.63,6.7,1.97,13.34,1.95,20.1-.01,3.21-.9,6.33-1.09,9.47-.41,7.1,0,14.27,3.55,20.64,1.4,2.51,3.39,5.34,7.29,4.53.95-.2,1.37,1.16,2.36,1.16,1.5-.33,1.26-1.78,1.41-2.68,1-5.97,1.26-12.02,1.86-18.03.85-8.56,1.33-17.14,1.85-25.73.4-6.8.34-13.68,1.27-20.39.7-5.04-1.81-8.02-4.23-11.62-2.33-3.46-5.03-6.61-6.55-10.79-1.34-3.69-5.44-5.92-8.93-8.06-8.34-5.11-17.3-8.82-26.92-10.6-6.62-1.23-13.31-1.06-19.8,1.13-1.38.47-2.98.65-3.55,2.36" fill="none" stroke="#000" stroke-linecap="round" stroke-linejoin="round" stroke-width="2"/>
      <path d="M316.27,384.81c1.71-3.33,4.49-5.75,7.15-8.22.66-.61,1-1.1.82-1.83-1.05-4.24-2.68-8.29-4.77-12.1-1.38-2.53-5.73-2.72-8.22-.61-1.75,1.48-3.06,3.31-4.15,5.32" fill="none" stroke="#000" stroke-linecap="round" stroke-linejoin="round" stroke-width="2"/>
      <path d="M227.83,278.92c-1.99,1.72-4.17.1-6.21.14-8.7.16-17.1,1.86-25.4,4.13-.97.27-2.14,0-2.99.76" fill="none" stroke="#000" stroke-linecap="round" stroke-linejoin="round" stroke-width="2"/>
      <path d="M326.92,290.45c-8.1.38-15.04,3.18-20.09,9.78-.78,1.02-1.55,2-2.68,2.65" fill="none" stroke="#000" stroke-linecap="round" stroke-linejoin="round" stroke-width="2"/>
      <path d="M419.5,385.4c-2.64.65-3.55,2.62-3.52,5.03.06,3.45.53,6.86,2.66,9.74.51.69.56,1.35.56,2.09" fill="none" stroke="#000" stroke-linecap="round" stroke-linejoin="round" stroke-width="2"/>
      <path d="M377.79,390.72c-2.53.18-3.98,2.35-4.5,5.61-.54,3.38-.59,6.7-.23,10.07" fill="none" stroke="#000" stroke-linecap="round" stroke-linejoin="round" stroke-width="2"/>
      <path d="M357.09,308.79c-2.72,2.44-5.99,3.82-9.48,4.68-.69.17-1,.59-1.47.94" fill="none" stroke="#000" stroke-linecap="round" stroke-linejoin="round" stroke-width="2"/>
    </g>
    <g>
      <path d="M499.36,326.54c-.1,2.66-2.35,3.17-4.16,3.8-4.98,1.73-10.1,1.3-15.05,0-7.27-1.93-14.06-5.03-20.44-9.08-3.99-2.53-8.59-3.73-12.97-5.41-4.9-1.87-9.86-3.77-14.46-6.26-7.01-3.79-14.69-4.6-22.24-6.1-4.25-.84-8.5-2.32-12.72-2.48-5.55-.22-8.29-3.92-11.86-6.96-10.94-9.3-19.56-20.61-27.95-32.07-3.67-5-8.78-6.54-14.03-8.16-9.42-2.9-19.1-4.81-28.67-7.17-8.29-2.05-16.56-4.15-24.86-6.15-8.63-2.09-17.24-4.19-26.01-5.73-9.83-1.72-19.63-3.51-29.58-4.44-5.29-.5-10.46.41-15.68.59-3.3.11-6.74.64-10.07.85-11.13.72-22.26,1.57-33.41,2-6.81.26-13.6.54-20.41.46-1.79-.02-2.82.42-3.92,2.06-4.35,6.48-8.06,13.34-11.65,20.22-5.08,9.72-9.95,19.57-14.59,29.53-3.99,8.57-7.65,17.29-11.18,26.05-.33.83-1.04,1.87-.35,2.93" fill="none" stroke="#fff" stroke-miterlimit="10"/>
      <path d="M356.2,259.1c2.99-.35,5.22,1.6,7.67,2.71,7.96,3.62,15.74,7.64,23.99,10.57,10.59,3.76,21.38,6.86,32.22,9.83,4.09,1.12,8.19,2.35,11.85,4.67,11.74,7.45,24.67,12.57,36.98,18.92,3.54,1.83,6.87,4.04,10.38,5.85,5.72,2.95,11.41,5.97,17.1,8.98,1.36.72,2.7,1.57,3.85,2.64.49.46.88,1.2.55,1.73-.35.55-.78,1.4-1.72,1.21-6.7-1.37-13.14-3.25-17.45-9.17-.91-1.24-.79-2.45.29-3.55" fill="none" stroke="#fff" stroke-miterlimit="10"/>
      <path d="M234.93,287.49c-1.24.47-2.51.7-3.85.6-5.87-.44-11.68.4-17.44,1.26-6.38.95-12.68,2.52-18.93,4.12-13.44,3.43-26.85,6.97-40.22,10.67-10.58,2.93-21.1,6.11-31.69,9.03-3.1.85-6.11,2.31-9.45,2.12-1.1-.06-1.25.91-1.78,1.49" fill="none" stroke="#fff" stroke-miterlimit="10"/>
      <path d="M217.48,262.35c.79,3.55,3.29,6.1,5.36,8.85,7.11,9.46,14.67,18.57,21.27,28.41,4.01,5.98,10.03,9.63,15.98,13.29,5.04,3.1,9.93,6.4,14.77,9.79,8.11,5.68,13.52,13.59,18.03,22.19,3.91,7.46,8.9,14.25,13.1,21.54,2.53,4.4,4.5,9.01,6.41,13.66,1.81,4.4,3.39,5.7,7.43,5.62,3.57-.08,4.84-2.83,6.18-5.35,3.04-5.72,4.3-11.92,3.5-18.31-.71-5.75-3-11.08-5.54-16.28-3.08-6.32-8.03-11.3-12.21-16.79-4.38-5.75-7.26-12.03-8.73-19-.32-1.52-.49-3.33.83-4.72" fill="none" stroke="#fff" stroke-miterlimit="10"/>
      <path d="M394.06,301.1c1.67,3.85,5.41,5.66,8.33,8.23,7.93,6.98,15.28,14.37,21.02,23.38,7.29,11.43,15.97,21.88,23.88,32.88,5.55,7.73,11.25,15.36,16.02,23.64,1.85,3.22,1.8,3.65-1.81,4.45-4.81-3.3-8.64-7.48-11.21-12.73-.6-1.22-1.1-2.52-1.49-3.84-.7-2.31-.5-4.35,2.06-5.47" fill="none" stroke="#fff" stroke-miterlimit="10"/>
      <path d="M413.88,355.82c-1.3,2.84.44,5.43,1.03,7.95,1.67,7.1,3.33,14.21,5.05,21.29.96,3.95,2.41,7.8,3.19,11.85.38,1.98,1.28,4.32-.21,5.5-1.97,1.56-4.82.86-6.95-.23-3.65-1.87-6.06-5.07-8.38-8.46-5.37-7.87-7.38-17.05-10.6-25.77-3.55-9.62-7.05-19.27-12.38-28.12-.55-.92-1.08-1.69-2.1-2.05" fill="none" stroke="#fff" stroke-miterlimit="10"/>
      <path d="M371.58,318.55c.85-.06,1.69.08,2.36.6,9.19,7.15,19.01,13.55,27.16,21.93,4.32,4.44,8.18,9.5,12.65,13.67,10.05,9.38,17.7,20.73,27.07,30.62,3.59,3.79,7.51,7.41,12.71,8.82,2.35.63,5.12,2.38,7.37-.51" fill="none" stroke="#fff" stroke-miterlimit="10"/>
      <path d="M307.99,290.16c-.89,1.48-1.84,2.92-2.65,4.44-1.75,3.28-2.46,6.71-1.22,10.32.56.43,1.32.54,1.78.29,5.84-3.26,11.29.36,16.87,1,7.95.9,14.93,4.9,22.16,7.99,1.98.85,2.61,3.4,3.52,5.27,3.64,7.55,6.98,15.25,10.85,22.67,1.7,3.26,1.76,6.62,2.07,9.85.63,6.7,1.97,13.34,1.95,20.1-.01,3.21-.9,6.33-1.09,9.47-.41,7.1,0,14.27,3.55,20.64,1.4,2.51,3.39,5.34,7.29,4.53.95-.2,1.37,1.16,2.36,1.16,1.5-.33,1.26-1.78,1.41-2.68,1-5.97,1.26-12.02,1.86-18.03.85-8.56,1.33-17.14,1.85-25.73.4-6.8.34-13.68,1.27-20.39.7-5.04-1.81-8.02-4.23-11.62-2.33-3.46-5.03-6.61-6.55-10.79-1.34-3.69-5.44-5.92-8.93-8.06-8.34-5.11-17.3-8.82-26.92-10.6-6.62-1.23-13.31-1.06-19.8,1.13-1.38.47-2.98.65-3.55,2.36" fill="none" stroke="#fff" stroke-miterlimit="10"/>
      <path d="M316.27,384.81c1.71-3.33,4.49-5.75,7.15-8.22.66-.61,1-1.1.82-1.83-1.05-4.24-2.68-8.29-4.77-12.1-1.38-2.53-5.73-2.72-8.22-.61-1.75,1.48-3.06,3.31-4.15,5.32" fill="none" stroke="#fff" stroke-miterlimit="10"/>
      <path d="M227.83,278.92c-1.99,1.72-4.17.1-6.21.14-8.7.16-17.1,1.86-25.4,4.13-.97.27-2.14,0-2.99.76" fill="none" stroke="#fff" stroke-miterlimit="10"/>
      <path d="M326.92,290.45c-8.1.38-15.04,3.18-20.09,9.78-.78,1.02-1.55,2-2.68,2.65" fill="none" stroke="#fff" stroke-miterlimit="10"/>
      <path d="M419.5,385.4c-2.64.65-3.55,2.62-3.52,5.03.06,3.45.53,6.86,2.66,9.74.51.69.56,1.35.56,2.09" fill="none" stroke="#fff" stroke-miterlimit="10"/>
      <path d="M377.79,390.72c-2.53.18-3.98,2.35-4.5,5.61-.54,3.38-.59,6.7-.23,10.07" fill="none" stroke="#fff" stroke-miterlimit="10"/>
      <path d="M357.09,308.79c-2.72,2.44-5.99,3.82-9.48,4.68-.69.17-1,.59-1.47.94" fill="none" stroke="#fff" stroke-miterlimit="10"/>
    </g>
  </g>
</svg>