<?xml version="1.0" encoding="UTF-8"?>
<svg id="Layer_2" data-name="Layer 2" xmlns="http://www.w3.org/2000/svg" viewBox="0 0 1312 147">
  <g id="Layer_1-2" data-name="Layer 1">
    <g id="_5pRqEy" data-name="5pRqEy">
      <g>
        <path d="M89,0H0v147h89v-18H22v-47h60v-16.5l-1.5-1.5H22V17h67V0ZM139,0h-22v147h88v-18h-66V0ZM314,0h-89v147h89v-18h-67v-47h60v-16.5l-1.5-1.5h-58.5V17h67V0ZM364,0h-22v147h22v-51.5c11.65-9.43,21.55,3.08,28.41,11.59,10.29,12.75,18.72,27.18,29.09,39.91h25.5c-12.46-15.91-23.13-34.11-35.61-49.89-8.02-10.14-14.81-17.91-29.21-14.42l-11.19,4.81L443,0h-25.5l-53.5,64V0ZM562,0h-108v17h85l-19.99,4.51c-5.76,1.68-14.18,5.29-18.02,9.98-.85,1.04-3.98,7.21-3.98,8.02v107.5h22V38.5c0-1.3,2.6-6.99,3.57-8.43,7.64-11.43,26.92-13.04,39.43-13.07V0ZM644.5,0h-62.5v147h22v-46.5c0-.4,3.35-6.25,3.98-7.02,3.28-3.97,15.47-8.6,19.6-5.56l33.42,59.07h24l-34.99-61.51c28.58-8.06,42.17-39.97,25.81-65.81-6.04-9.54-20.07-18.34-31.32-19.68ZM776,0h-75v17c10.01.87,22.27,1.47,25.77,12.73,2.35,26.28-2.33,55.96.18,81.82.57,5.87,3.08,9.06,8.17,11.83l19.88,5.62h-54v18h75v-18c-14.59,0-25.74-1.9-27.04-18.46-1.93-24.68,2.34-52.64.08-77.08-.65-7.02-5.12-9.31-11.06-11.94l-17.99-4.51h56V0ZM822,0h-22v147h22v-51.5c11.65-9.43,21.55,3.08,28.41,11.59,10.29,12.75,18.72,27.18,29.09,39.91h25.5c-12.46-15.91-23.13-34.11-35.61-49.89-8.02-10.14-14.81-17.91-29.21-14.42l-11.19,4.81L901,0h-25.5l-53.5,64V0ZM1079,0h-89v147h89v-18h-67v-47h60v-16.5l-1.5-1.5h-58.5V17h67V0ZM1196,0h-89v147h89v-18h-67v-47h60v-16.5l-1.5-1.5h-58.5V17h67V0ZM1246,0h-22v147h88v-18h-66V0Z"/>
        <path d="M644.5,0c11.26,1.33,25.28,10.14,31.32,19.68,16.35,25.84,2.77,57.76-25.81,65.81l34.99,61.51h-24l-33.42-59.07c-4.13-3.04-16.32,1.59-19.6,5.56-.63.77-3.98,6.61-3.98,7.02v46.5h-22V0h62.5Z" fill="#fff"/>
        <path d="M364,0v64L417.5,0h25.5l-72.01,87.49,11.19-4.81c14.39-3.48,21.19,4.28,29.21,14.42,12.48,15.78,23.14,33.98,35.61,49.89h-25.5c-10.36-12.73-18.8-27.16-29.09-39.91-6.87-8.51-16.77-21.01-28.41-11.59v51.5h-22V0h22Z" fill="#fff"/>
        <path d="M822,0v64L875.5,0h25.5l-72.01,87.49,11.19-4.81c14.39-3.48,21.19,4.28,29.21,14.42,12.48,15.78,23.14,33.98,35.61,49.89h-25.5c-10.36-12.73-18.8-27.16-29.09-39.91-6.87-8.51-16.77-21.01-28.41-11.59v51.5h-22V0h22Z" fill="#fff"/>
        <polygon points="89 0 89 17 22 17 22 64 80.5 64 82 65.5 82 82 22 82 22 129 89 129 89 147 0 147 0 0 89 0" fill="#fff"/>
        <polygon points="314 0 314 17 247 17 247 64 305.5 64 307 65.5 307 82 247 82 247 129 314 129 314 147 225 147 225 0 314 0" fill="#fff"/>
        <polygon points="1079 0 1079 17 1012 17 1012 64 1070.5 64 1072 65.5 1072 82 1012 82 1012 129 1079 129 1079 147 990 147 990 0 1079 0" fill="#fff"/>
        <polygon points="1196 0 1196 17 1129 17 1129 64 1187.5 64 1189 65.5 1189 82 1129 82 1129 129 1196 129 1196 147 1107 147 1107 0 1196 0" fill="#fff"/>
        <path d="M776,0v17h-56l17.99,4.51c5.94,2.63,10.41,4.92,11.06,11.94,2.25,24.45-2.02,52.41-.08,77.08,1.3,16.56,12.45,18.47,27.04,18.46v18h-75v-18h54l-19.88-5.62c-5.08-2.77-7.6-5.96-8.17-11.83-2.51-25.87,2.17-55.54-.18-81.82-3.51-11.26-15.76-11.86-25.77-12.73V0h75Z" fill="#fff"/>
        <path d="M562,0v17c-12.52.03-31.79,1.64-39.43,13.07-.97,1.44-3.57,7.14-3.57,8.43v108.5h-22V39.5c0-.81,3.13-6.97,3.98-8.02,3.84-4.69,12.27-8.3,18.02-9.98l19.99-4.51h-85V0h108Z" fill="#fff"/>
        <polygon points="139 0 139 129 205 129 205 147 117 147 117 0 139 0" fill="#fff"/>
        <polygon points="1246 0 1246 129 1312 129 1312 147 1224 147 1224 0 1246 0" fill="#fff"/>
      </g>
    </g>
  </g>
</svg>