<?xml version="1.0" encoding="UTF-8"?>
<svg id="Layer_2" data-name="Layer 2" xmlns="http://www.w3.org/2000/svg" viewBox="0 0 300.49 153.04">
  <g id="Layer_1-2" data-name="Layer 1">
    <g>
      <path d="M260.29,127.7c.09-2.39.41-6.19,1.45-9.85l.99.39c-1.59,5.63-1.42,11.81-1.42,11.87l-1.05.05c0-.1-.03-1.03.03-2.46Z" fill="#fff"/>
      <polygon points="240.73 138.93 256.84 116.06 257.64 116.86 241.54 139.73 240.73 138.93" fill="#fff"/>
      <path d="M.03,22.74v-.05c.12-3.11,5.08-3.88,10.82-4.77,4.47-.69,9.1-1.41,11.12-3.25.26-.24.4-.5.42-.82v-.06c.05-1.26-1.41-3.18-2.38-4.45-1.05-1.37-1.62-2.13-1.29-2.83.3-.63,1.06-.46,1.42-.38,15.74,3.71,31.49,2.25,46.72.83,7.82-.73,15.91-1.48,23.88-1.52,2.01-.07,4.13-.12,6.29-.15,10.71-.18,23.07.08,26.61.91,5.22-5.92,29.27-9.93,40.59-.91,12.18,1.12,20.6,5.54,23.71,9.54,4.89-1,12.23,4.73,13.11,5.43,8.47,2.75,21.7,6.61,23.64,6.04,2.87-.84,7.88-.19,11.32,2.36,1.35,1,5.97,2.33,10.86,3.73,6.8,1.95,13.83,3.96,15.44,5.98l.17.22c2.63,3.29,4.9,6.13,2.24,10.8-2.42,4.24-17.08,13.71-30.49,7.62-6.62-3-9.13-4.47-10.49-5.26-1.24-.73-1.4-.82-2.96-1.03-1.11-.15-2.87-.03-4.91.11-3.59.24-7.96.54-11.53-.41,4.53,8.88,8.86,20.27,10.04,25.41,1.13,4.91.36,21.36.25,23.59.43.65,2.3,3.16,6.21,4.15,6.13,1.55,12.79,4.35,14.57,5.5.99-.87,1.81-1.09,2.3-1.13.42-1.76,2.05-8.08,4.95-13.93,2.91-5.85,11.73-20.96,17.6-20.6,1.62.1,2.88,1.3,3.76,3.57,1.71,4.42-4.86,33.46-6.15,39.06l4.3,1.36c1.82-.97,16.03-8.28,25.86-5.02,10.4,3.45,13.16,6.05,12.31,11.61-.53,3.43-8.72,5.97-17.81,8.49-1.98.55-3.7,1.03-4.57,1.36-1.17.45-3.03,1.41-5.18,2.52-4.92,2.54-10.5,5.41-12.75,4.84-2.94-.74-9.37-1.6-12.77-1.25-2.79.29-5.11.11-5.9.03-1.5,2.25-9.07,13.32-12.67,13.05-3.69-.28-24.3-6.78-30.68-9.21-5.35-2.04-10.37-3.11-14.13-3.03-2.06.05-8.27.19-13.07-8.46-4.36.05-5.85-1.9-8.29-5.09-.88-1.16-1.89-2.47-3.21-3.93-1.7-1.87-4.64-4.73-8.05-8.04-6.43-6.24-14.42-14.01-17.08-18.19-2.06-1.82-5.23-4.47-8.89-7.53-7.59-6.34-17-14.2-20.15-17.8-1.1-.17-2.36-.43-3.84-.81-1.56-.4-3.16-.87-4.39-1.23-1.71-.53-3.41-1.05-5.12-1.56-5.82-1.88-11.51-3.43-17.24-1.91-3.93.82-8.24,2.08-12.8,3.41-17.75,5.18-37.86,11.06-45.4-6.21-.22-.51-.27-1.02-.13-1.52.35-1.27,1.78-2.1,3.43-3.06,1.52-.88,3.25-1.89,3.59-3.11.12-.41.07-.85-.14-1.34-.29-.68-3.13-1.57-5.21-2.22-4.04-1.26-8.22-2.56-8.38-5.1-.24-3.55,2.72-3.82,5.32-4.07,1.89-.18,3.84-.37,4.65-1.62.43-.66.53-1.62.32-2.92-.05-.32.02-.64.2-.88.54-.72,1.91-.65,4.49-.46,1.97.15,4.67.35,5.32-.37.07-.08.09-.15.09-.26-.05-3.8-10.21-6.38-17.62-8.26C4.17,26.19-.08,25,0,22.7l.03.04ZM23.45,13.85v.11c-.05.68-.33,1.25-.83,1.7-2.25,2.04-7.01,2.78-11.63,3.49-4.61.71-9.83,1.52-9.91,3.61h0c-.05,1.39,6.87,3.14,11.45,4.31,9.04,2.3,18.38,4.67,18.45,9.46,0,.45-.14.87-.42,1.18-.91,1.02-3.01.95-6.11.71-1.24-.09-3.07-.23-3.57,0,.24,1.6.06,2.83-.54,3.76-1.09,1.7-3.28,1.91-5.4,2.11-3.06.29-4.49.66-4.36,2.73.11,1.65,4.44,3,7.6,3.99,3.43,1.07,5.39,1.73,5.87,2.86.34.79.4,1.56.2,2.29-.48,1.71-2.33,2.79-4.12,3.83-1.26.73-2.68,1.56-2.9,2.33-.03.12-.06.29.06.56,7.16,16.4,26.85,10.65,44.22,5.57,4.58-1.34,8.91-2.6,12.85-3.42,5.93-1.58,11.76,0,17.71,1.93,1.7.5,3.4,1.02,5.11,1.55,1.21.36,2.81.83,4.34,1.22s2.81.66,3.93.82l.18.03.13.15c2.94,3.46,12.48,11.42,20.14,17.82,3.71,3.09,6.9,5.77,8.98,7.6l.11.13c2.54,4.04,10.53,11.8,16.95,18.04,3.42,3.32,6.37,6.19,8.1,8.09,1.36,1.5,2.38,2.83,3.28,4,2.37,3.1,3.67,4.8,7.78,4.67h.3l.16.29c4.04,7.49,8.97,8.25,12.33,8.17,2.74-.06,7.47.42,14.47,3.09,6.17,2.35,26.88,8.89,30.42,9.15,2.74.21,9.56-9.2,11.95-12.85l.18-.27.29.04s2.7.34,5.99,0c3.49-.36,10.08.51,13.08,1.27,1.92.49,7.81-2.55,12.11-4.77,2.18-1.12,4.06-2.09,5.28-2.56.92-.35,2.57-.81,4.66-1.39,5.38-1.49,16.57-4.59,17.01-7.51.64-4.18-.88-6.65-11.56-10.19-9.93-3.29-25.16,4.96-25.31,5.04l-.17.09-5.68-1.8.14-.6c3.23-13.86,7.58-35.63,6.35-38.81-.71-1.84-1.65-2.77-2.86-2.84-4.93-.3-13.34,13.34-16.64,19.99-3.32,6.7-4.93,14.01-4.95,14.09l-.13.58-.49-.12s-.91-.16-2.22,1.13l-.35.35-.34-.37c-.58-.59-7.42-3.72-14.47-5.5-4.92-1.25-6.88-4.69-6.96-4.84l-.1-.17v-.21c.02-.19.95-18.44-.2-23.41-1.22-5.31-5.88-17.46-10.61-26.41l-.76-1.45,1.37.52c3.58,1.37,8.5,1.03,12.45.76,2.08-.14,3.89-.26,5.09-.1,1.69.23,1.96.36,3.3,1.15,1.34.78,3.83,2.24,10.4,5.22,12.7,5.76,27.02-3.24,29.25-7.16,2.19-3.84.47-6-2.13-9.25l-.17-.22c-1.4-1.75-8.9-3.9-14.93-5.63-5.19-1.49-9.68-2.77-11.17-3.88-3.2-2.37-7.85-2.98-10.51-2.2-2.84.84-22.07-5.37-24.26-6.08l-.09-.03-.07-.06c-.08-.06-8.03-6.48-12.66-5.23l-.31.08-.21-.29c-2.09-2.9-9.35-8.15-23.33-9.4h-.14l-.12-.11c-4.95-4.01-13.14-5.84-22.46-5.02-7.77.68-14.96,3.17-17.1,5.92l-.21.27-.3-.09c-2.98-.85-15.95-1.13-26.65-.95-2.16.03-4.28.08-6.29.15-7.95.04-16.01.79-23.82,1.52-15.3,1.43-31.12,2.9-47-.85h0c.23.35.57.8.85,1.16,1.22,1.59,2.72,3.57,2.65,5.34v.02Z" fill="#fff"/>
      <path d="M237.61,108.7l1.02-.28c.71,3.67,3.18,6.22,3.21,6.24l-.68.95c-.11-.11-2.76-2.82-3.55-6.91Z" fill="#fff"/>
      <path d="M170.99,131.11c1.84-.48,4.1-1.03,6.49-1.62,12.49-3.06,33.39-8.19,34.84-13.08.83-2.79,1.26-16.69,1.26-16.83l1.05.04c-.02.58-.44,14.23-1.32,17.2-1.52,5.13-17.72,9.5-35.62,13.89-2.39.59-4.64,1.14-6.48,1.62l-.23-1.21h.01Z" fill="#fff"/>
      <path d="M209.42,120.54l.14-1.23c6.64,1.06,11.02,3.72,12.25,4.54l13.29-14.49.71.92-13.87,15.12-.34-.25s-4.69-3.41-12.18-4.6h0Z" fill="#fff"/>
      <path d="M218.35,134.18c.09-2.43.7-6.16,3.11-9.93l.84.75c-3.7,5.8-2.81,11.63-2.8,11.69l-1.03.24c-.02-.1-.18-1.14-.12-2.74h0Z" fill="#fff"/>
      <path d="M164.78,111.63c.99-.54,10.49-2.88,16.61-4.17,6.61-1.39,11.88-4.67,13.51-6.55,1.27-1.47,2.69-18.59,3.3-25.91.25-3,.43-5.18.54-5.99.23-1.68-1.89-6.89-3.76-11.5-1.5-3.68-3.04-7.48-3.76-10.22-1.13-4.33.9-8.33,3.26-10.21,1.47-1.18,2.88-1.38,3.76-.53,1.6,1.55,2.63,4.7,3.61,7.75.67,2.05,1.29,3.99,2.02,5.17l-.85.73c-.81-1.31-1.46-3.32-2.15-5.46-.94-2.9-1.91-5.89-3.3-7.23-.49-.47-1.47-.24-2.51.59-2.11,1.69-3.77,5.26-2.84,8.82.69,2.65,2.22,6.41,3.7,10.05,2.22,5.46,4.13,10.16,3.85,12.24-.11.78-.3,3.04-.53,5.91-1.31,15.76-2.31,25.18-3.61,26.67-2.04,2.36-7.86,5.58-14.06,6.88-6.86,1.44-15.6,3.66-16.35,4.07l-.44-1.13v.02Z" fill="#fff"/>
      <path d="M159.91,91.45c.09-.09,2.13-2.1,5.24-3.94,2.76-1.64,6.88-3.41,11.11-2.8.25-4.58,1.69-14.26,4.41-17-2.33-4.63-.84-17.36-.04-20.03,1.99-6.63,3.39-10.64,7.09-9.68,3.18.83,4.29,7.86,4.34,8.16l-1.03.22c-.28-1.81-1.46-6.63-3.53-7.17-2.71-.7-3.82,2.02-5.88,8.88-.97,3.25-2.11,16.01.18,19.38l.39.57-.53.36c-2.52,1.7-4.18,11.82-4.37,16.8v.25l-.02.71-.59-.11c-7.98-1.56-16,6.29-16.08,6.37l-.67-.95-.02-.02Z" fill="#fff"/>
      <path d="M97.96,26.2c.6-1.11,3.75-5.77,7.13-6.53,2.79-.63,4.81-3.69,4.83-3.72l.83.76c-.09.14-2.28,3.47-5.46,4.19-2.76.62-5.73,4.66-6.44,5.98l-.88-.67h0Z" fill="#fff"/>
      <path d="M97.09,59.38l.96-.49c.03.09,3.33,9.03,7.59,11.75l-.5,1.09c-4.58-2.92-7.92-11.97-8.06-12.35h.01Z" fill="#fff"/>
      <path d="M116.29,13.48c.07-.15,1.7-3.63,7.29-7.15l.49,1.1c-5.28,3.32-6.85,6.61-6.86,6.65l-.92-.59h0Z" fill="#fff"/>
      <path d="M115.67,23.92l.25-1.21c.55.16,13.58,4.06,19.06,11.29,3.13,4.13,7.96,13.65,11.85,21.29,2.77,5.45,5.38,10.59,6.21,11.41.57.57,1.22,1,1.85,1.42,1.45.96,2.95,1.94,3.04,4.53,2.64-.17,5.64,2.63,9.15,8.53,1.51.97,2.47,1.23,3.24,1.44,1.09.3,1.87.51,3.07,2.27l-.82.78c-.97-1.43-1.51-1.57-2.49-1.84-.81-.22-1.91-.52-3.62-1.63l-.11-.07-.07-.12c-3.51-5.93-6.47-8.64-8.79-8.05l-.69.18.05-.83c.16-2.38-.96-3.1-2.49-4.11-.67-.44-1.37-.9-2.02-1.55-.91-.91-3.04-5.05-6.43-11.72-3.86-7.6-8.67-17.06-11.73-21.1-5.27-6.96-18.4-10.88-18.53-10.92h.02Z" fill="#fff"/>
      <path d="M144.31,65.7l.1-1.24c.19.02,4.61.52,8.46,2.14l-.35,1.17c-3.73-1.57-8.16-2.07-8.21-2.08h0Z" fill="#fff"/>
      <path d="M144.89,73.46c.32-.11,7.9-2.68,12.68-.67l-.35,1.17c-4.45-1.88-11.96.66-12.03.69l-.29-1.19h0Z" fill="#fff"/>
      <path d="M144.72,43.94l1-.37c3.54,13.44,25.73,32.56,25.95,32.75l-.61,1.01c-.06-.05-5.72-4.92-11.76-11.41-8.14-8.76-13.05-16.16-14.58-21.98h0Z" fill="#fff"/>
      <path d="M129.22,30.27l.3-1.19c.29.1,7.08,2.61,14.38,12.27,7.12,9.42,31.84,21.67,32.09,21.79l-.4,1.15c-1.02-.51-25.19-12.48-32.47-22.11-7.09-9.38-13.83-11.88-13.9-11.91Z" fill="#fff"/>
      <path d="M122.03,16.13c.47-.02,4.85.27,13.1,16.35l-.9.65c-7.95-15.49-12.14-15.75-12.18-15.75l-.02-1.24h0Z" fill="#fff"/>
      <path d="M142.63,33.61l.6-1.02c2.38,1.99,4.57,5.09,6.88,8.38,1.96,2.79,3.99,5.67,6.15,7.8,4.54,4.5,21.23,10.72,21.4,10.79l-.31,1.19c-.69-.26-17.06-6.37-21.76-11.02-2.23-2.21-4.29-5.13-6.28-7.96-2.27-3.22-4.41-6.26-6.68-8.16Z" fill="#fff"/>
      <path d="M88.87,33.39c0-.1,0-.21.02-.31.37-4.79,4.16-6.35,4.32-6.42l.33,1.18c-.13.05-3.3,1.38-3.61,5.35,0,.08-.01.17-.01.25-.09,2.47,1.14,5.39,2.23,7.99.78,1.86,1.52,3.61,1.76,5.11.57,3.52,1.79,8.51,1.8,8.56l-1.01.35s-1.25-5.1-1.82-8.67c-.21-1.33-.92-3.01-1.67-4.79-1.15-2.73-2.45-5.81-2.34-8.6h0Z" fill="#fff"/>
      <path d="M83.61,54.36c2.88.13,5.1,1.48,6.76,4.13.79,1.03,1.53,2.17,2.25,3.27l.09.15c.82,1.27,1.51,2.32,2.27,3.26,1.61,2.31,2.91,3.59,3.87,3.86l-.24,1.21c-1.21-.33-2.65-1.72-4.41-4.24-.83-1.03-1.65-2.3-2.32-3.33l-.09-.15c-.71-1.09-1.44-2.22-2.21-3.22l-.03-.05c-1.47-2.34-3.42-3.54-5.98-3.66l.04-1.24h0Z" fill="#fff"/>
      <path d="M56.94,22.06l.08-1.24c8.21.7,16.16.55,24.57.39,3.01-.06,6.12-.12,9.22-.14,3.69-.06,6.3-.17,6.33-.17l.04,1.24s-2.65.11-6.36.17c-3.1.02-6.21.08-9.21.14-8.44.16-16.41.32-24.67-.39Z" fill="#fff"/>
      <path d="M221.67,46.04c.18-4.66,2.25-9.52,2.37-9.8l.93.57c-.04.09-3.67,8.61-1.67,13.34l-.94.56c-.59-1.39-.76-3.01-.7-4.66h.01Z" fill="#fff"/>
      <path d="M197,18.82l.81-.8c5.19,7.39,4.3,19.4,4.26,19.91l-1.04-.12c.01-.12.89-12.01-4.02-19h-.01Z" fill="#fff"/>
      <path d="M204.44,49.66c2.77-7.07,1.26-13.55,1.24-13.61l1.01-.34c.07.28,1.65,6.97-1.3,14.48l-.95-.52h0Z" fill="#fff"/>
      <path d="M176.28,85.7l.94-.55c2.24,5.34,7.82,9.35,7.88,9.39l-.54,1.07c-.24-.17-5.9-4.24-8.28-9.9h0Z" fill="#fff"/>
      <path d="M181.15,67.31c3.67-2.26,8.06-.85,8.24-.79l-.28,1.2s-4.18-1.34-7.47.7l-.48-1.1h0Z" fill="#fff"/>
      <path d="M187.46,16.01l.61-1.01c5.02,4.23,9.78,17.87,9.98,18.45l-.97.47c-.05-.14-4.84-13.89-9.62-17.91Z" fill="#fff"/>
      <path d="M192.84,16.71l.68-.95c3.43,3.45,4.95,11.54,5.01,11.88l-1.02.26c-.01-.08-1.5-8.02-4.66-11.2h-.01Z" fill="#fff"/>
    </g>
  </g>
</svg>