<?xml version="1.0" encoding="UTF-8"?>
<svg id="Layer_2" data-name="Layer 2" xmlns="http://www.w3.org/2000/svg" viewBox="0 0 27.71 28.43">
  <g id="Layer_1-2" data-name="Layer 1">
    <g id="Two_stars_right" data-name="Two stars right">
      <path d="M12.21,25.2c-.46,0-.83-.31-.91-.78h0l-1.42-7.54c-.18-.96-.89-1.69-1.82-1.88l-7.31-1.46c-.45-.09-.75-.47-.75-.94s.3-.85.75-.94l7.31-1.46c.93-.19,1.64-.92,1.82-1.88l1.42-7.54c.09-.46.45-.78.91-.78h0c.46,0,.83.31.91.78l1.42,7.54c.18.96.89,1.69,1.82,1.88l7.31,1.46c.45.09.75.47.75.94s-.3.85-.75.94l-7.31,1.46c-.93.19-1.64.92-1.82,1.88l-1.42,7.54c-.09.46-.45.78-.91.78ZM11.78,24.32c.05.27.26.37.43.37s.38-.1.43-.37l1.42-7.54c.22-1.16,1.08-2.05,2.21-2.28l7.31-1.46c.26-.05.36-.27.36-.45s-.09-.4-.36-.45l-7.31-1.46c-1.12-.22-1.99-1.12-2.21-2.28l-1.42-7.54c-.05-.27-.26-.37-.43-.37s-.38.1-.43.37l-1.42,7.54c-.22,1.16-1.08,2.05-2.21,2.28l-7.31,1.46c-.26.05-.36.27-.36.45s.09.39.36.45l7.31,1.46c1.12.22,1.99,1.12,2.21,2.28l1.42,7.54Z" fill="#fff"/>
      <path d="M22.17,28.43c-.27,0-.49-.19-.54-.46h0l-.63-3.33c-.07-.36-.34-.65-.7-.72l-3.23-.65c-.26-.05-.44-.28-.44-.55s.18-.5.44-.55l3.23-.65c.35-.07.63-.35.7-.72l.63-3.33c.05-.27.27-.46.54-.46h0c.27,0,.49.19.54.46l.63,3.33c.07.37.34.65.7.72l3.23.65c.26.05.44.28.44.55s-.18.5-.44.55l-3.23.65c-.35.07-.63.35-.7.72l-.63,3.33c-.05.27-.27.46-.54.46ZM22.11,27.88s0,.05.06.05.06-.04.06-.05l.63-3.33c.11-.57.53-1.01,1.08-1.12l3.23-.65s.05,0,.05-.06-.03-.06-.05-.06l-3.23-.65c-.55-.11-.97-.55-1.08-1.12l-.63-3.33s0-.05-.06-.05h0s-.06.04-.06.05l-.63,3.33c-.11.57-.53,1.01-1.08,1.12l-3.23.65s-.05,0-.05.06.03.06.05.06l3.23.65c.55.11.97.55,1.08,1.12l.63,3.33Z" fill="#fff"/>
    </g>
  </g>
</svg>