<?xml version="1.0" encoding="UTF-8"?>
<svg id="Layer_1" data-name="Layer 1" xmlns="http://www.w3.org/2000/svg" viewBox="0 0 50 50">
  <g id="Two_stars_right" data-name="Two stars right">
    <path d="M22.03,44.32c-.83,0-1.5-.55-1.64-1.37h0l-2.56-13.26c-.32-1.69-1.61-2.97-3.28-3.31l-13.19-2.57c-.81-.16-1.35-.83-1.35-1.65s.54-1.49,1.35-1.65l13.19-2.57c1.68-.33,2.96-1.62,3.28-3.31l2.56-13.26c.16-.81.81-1.37,1.64-1.37h0c.83,0,1.5.55,1.64,1.37l2.56,13.26c.32,1.69,1.61,2.97,3.28,3.31l13.19,2.57c.81.16,1.35.83,1.35,1.65s-.54,1.49-1.35,1.65l-13.19,2.57c-1.68.33-2.96,1.62-3.28,3.31l-2.56,13.26c-.16.81-.81,1.37-1.64,1.37ZM21.26,42.77c.09.47.47.65.78.65s.69-.18.78-.65l2.56-13.26c.4-2.04,1.95-3.61,3.99-4.01l13.19-2.57c.47-.09.65-.47.65-.79s-.16-.7-.65-.79l-13.19-2.57c-2.02-.39-3.59-1.97-3.99-4.01l-2.56-13.26c-.09-.47-.47-.65-.78-.65s-.69.18-.78.65l-2.56,13.26c-.4,2.04-1.95,3.61-3.99,4.01l-13.19,2.57c-.47.09-.65.47-.65.79s.16.69.65.79l13.19,2.57c2.02.39,3.59,1.97,3.99,4.01l2.56,13.26Z" fill="#fff"/>
    <path d="M40,50c-.49,0-.88-.33-.97-.81h0l-1.14-5.86c-.13-.63-.61-1.14-1.26-1.27l-5.83-1.14c-.47-.09-.79-.49-.79-.97s.32-.88.79-.97l5.83-1.14c.63-.12,1.14-.62,1.26-1.27l1.14-5.86c.09-.47.49-.81.97-.81h0c.49,0,.88.33.97.81l1.14,5.86c.13.65.61,1.14,1.26,1.27l5.83,1.14c.47.09.79.49.79.97s-.32.88-.79.97l-5.83,1.14c-.63.12-1.14.62-1.26,1.27l-1.14,5.86c-.09.47-.49.81-.97.81ZM39.9,49.03s0,.09.11.09.11-.07.11-.09l1.14-5.86c.2-1,.96-1.78,1.95-1.97l5.83-1.14s.09,0,.09-.11-.05-.11-.09-.11l-5.83-1.14c-.99-.19-1.75-.97-1.95-1.97l-1.14-5.86s0-.09-.11-.09h0s-.11.07-.11.09l-1.14,5.86c-.2,1-.96,1.78-1.95,1.97l-5.83,1.14s-.09,0-.09.11.05.11.09.11l5.83,1.14c.99.19,1.75.97,1.95,1.97l1.14,5.86Z" fill="#fff"/>
  </g>
</svg>