<?xml version="1.0" encoding="UTF-8"?>
<svg id="Layer_2" data-name="Layer 2" xmlns="http://www.w3.org/2000/svg" viewBox="0 0 43.27 46.36">
  <g id="Layer_1-2" data-name="Layer 1">
    <g id="Sun_right" data-name="Sun right">
      <path d="M20.8,46.32h-.01c-.18,0-.33-.16-.35-.35l-.69-8.65-2.89,8.12c-.06.18-.25.28-.42.24-.18-.05-.29-.23-.27-.42l.96-8.63-4.36,7.33c-.1.17-.3.23-.46.14-.17-.08-.25-.29-.19-.47l2.56-8.24-5.65,6.24c-.13.14-.33.16-.48.04-.15-.12-.19-.33-.1-.5l4.06-7.52-6.7,4.9c-.15.11-.35.08-.48-.06-.12-.15-.12-.37,0-.51l5.39-6.49-7.49,3.35c-.17.08-.36,0-.45-.17s-.05-.39.1-.5l6.5-5.2-7.97,1.67c-.18.04-.36-.07-.41-.26-.06-.19.02-.39.19-.47l7.35-3.69-8.12-.08c-.18,0-.34-.15-.36-.34-.02-.19.1-.37.27-.42l7.89-2.04-7.94-1.83c-.18-.04-.3-.22-.28-.41.02-.19.17-.35.35-.35l8.11-.29-7.43-3.5c-.17-.08-.25-.28-.2-.47s.23-.3.41-.27l8,1.46-6.62-5.03c-.15-.11-.2-.33-.11-.5.09-.17.28-.25.45-.18l7.56,3.15-5.54-6.35c-.12-.14-.13-.36-.01-.51s.32-.18.47-.08l6.82,4.72-4.23-7.41c-.1-.17-.06-.38.08-.51.14-.12.35-.11.48.03l5.79,6.09-2.75-8.17c-.06-.18.01-.39.18-.48.16-.09.36-.03.46.13l4.52,7.21-1.16-8.6c-.03-.19.09-.38.26-.43.17-.05.36.05.43.23l3.08,8.04.48-8.67c.01-.2.16-.35.34-.36s.34.12.38.31l1.5,8.54L24.21.46c.05-.19.22-.31.4-.28s.31.19.31.39l-.14,8.68,3.64-7.76c.08-.17.27-.26.44-.19.17.07.27.26.23.45l-1.77,8.48,5.03-6.82c.11-.15.32-.19.47-.09.16.1.22.31.14.49l-3.33,7.92,6.21-5.6c.14-.13.35-.12.48,0,.13.13.15.35.05.51l-4.75,7.04,7.13-4.15c.16-.09.36-.04.47.12.11.16.08.38-.05.51l-5.98,5.88,7.77-2.53c.17-.06.36.04.44.21.07.18,0,.39-.14.49l-6.96,4.47,8.08-.8c.18-.02.35.11.39.3s-.06.38-.23.45l-7.66,2.88,8.07.96c.18.02.32.18.32.38s-.13.36-.31.39l-8.04,1.17,7.72,2.68c.17.06.28.25.24.44-.03.19-.2.33-.38.31l-8.1-.59,7.06,4.28c.16.1.23.3.16.49-.07.18-.26.28-.43.23l-7.82-2.32,6.11,5.72c.14.13.16.35.06.51-.1.16-.3.22-.46.13l-7.23-3.95,4.91,6.92c.11.16.1.38-.04.51-.13.14-.34.15-.48.02l-6.33-5.43,3.51,7.83c.08.18.02.39-.13.49-.15.11-.36.07-.47-.08l-5.18-6.68,1.96,8.43c.04.19-.05.38-.22.46-.17.07-.36,0-.45-.18l-3.82-7.66.34,8.68c0,.2-.12.37-.3.4-.18.03-.35-.08-.41-.27l-2.3-8.33-1.3,8.57c-.03.19-.18.33-.36.33l.02-.04ZM19.98,35.2h.05c.17.03.3.17.31.35l.57,7.22,1.09-7.15c.03-.18.17-.31.33-.32.17,0,.32.1.37.28l1.92,6.95-.28-7.24c0-.18.1-.34.27-.39.16-.05.34.03.41.19l3.19,6.39-1.64-7.03c-.04-.18.04-.36.19-.44s.33-.04.44.1l4.33,5.58-2.93-6.54c-.07-.16-.03-.36.1-.47.13-.11.32-.11.45,0l5.29,4.53-4.1-5.77c-.1-.14-.1-.34.01-.48s.29-.18.44-.1l6.03,3.3-5.1-4.77c-.13-.12-.16-.32-.08-.48.08-.16.25-.24.42-.19l6.53,1.93-5.89-3.57c-.15-.09-.22-.28-.17-.45.05-.17.2-.28.37-.27l6.76.49-6.44-2.23c-.16-.06-.26-.22-.25-.4.02-.18.14-.32.31-.35l6.71-.98-6.73-.8c-.17-.02-.3-.16-.32-.34s.08-.35.24-.41l6.39-2.4-6.74.67c-.17.02-.32-.09-.38-.27-.05-.17,0-.36.16-.45l5.81-3.73-6.48,2.11c-.16.05-.34-.02-.42-.18-.08-.16-.06-.35.07-.48l4.99-4.9-5.95,3.46c-.15.09-.33.05-.44-.08-.11-.14-.12-.34-.02-.48l3.96-5.88-5.18,4.67c-.13.12-.32.12-.45,0-.13-.11-.18-.3-.11-.47l2.77-6.61-4.19,5.69c-.1.14-.29.19-.44.11s-.23-.26-.2-.43l1.47-7.07-3.04,6.48c-.08.16-.25.25-.41.2-.16-.04-.28-.2-.28-.38l.11-7.25-1.76,7c-.04.17-.2.3-.36.29-.17,0-.31-.14-.34-.32l-1.25-7.12-.4,7.23c-.01.18-.14.33-.3.36-.17.03-.33-.07-.39-.24l-2.57-6.71.96,7.17c.02.18-.07.35-.23.42-.16.06-.34,0-.43-.15l-3.78-6.02,2.29,6.82c.06.17,0,.36-.15.46-.14.1-.33.08-.45-.05l-4.83-5.08,3.53,6.18c.09.15.06.35-.06.48-.12.13-.31.15-.45.05l-5.69-3.94,4.62,5.3c.12.13.13.33.03.48-.09.15-.27.21-.43.14l-6.31-2.63,5.52,4.19c.14.1.19.3.12.46-.06.17-.23.26-.4.23l-6.68-1.22,6.2,2.92c.15.07.24.25.21.43s-.17.31-.34.31l-6.77.25,6.62,1.52c.17.04.28.19.29.37,0,.18-.11.34-.28.38l-6.58,1.7,6.77.07c.17,0,.31.13.35.3.04.18-.05.36-.2.43l-6.13,3.08,6.65-1.39c.16-.04.33.06.4.22.07.17.02.36-.11.47l-5.42,4.34,6.25-2.8c.16-.07.34,0,.43.13.1.15.09.35-.02.48l-4.5,5.42,5.59-4.09c.14-.1.33-.09.45.04.12.12.15.32.07.48l-3.39,6.28,4.71-5.21c.12-.13.3-.16.45-.06.14.09.21.28.16.45l-2.14,6.88,3.63-6.12c.09-.15.27-.22.43-.16s.26.23.24.41l-.8,7.2,2.41-6.77c.05-.15.19-.25.34-.25l.02.03Z" fill="#fff"/>
    </g>
  </g>
</svg>