<?xml version="1.0" encoding="UTF-8"?>
<svg id="Layer_1" data-name="Layer 1" xmlns="http://www.w3.org/2000/svg" viewBox="0 0 50 50">
  <g id="Sun_right" data-name="Sun right">
    <path d="M24.04,49.96h-.01c-.21,0-.38-.17-.4-.38l-.8-9.33-3.34,8.76c-.07.19-.29.3-.49.26-.21-.05-.34-.25-.31-.45l1.11-9.31-5.04,7.91c-.12.18-.35.25-.53.15-.2-.09-.29-.31-.22-.51l2.96-8.89-6.53,6.73c-.15.15-.38.17-.55.04-.17-.13-.22-.36-.12-.54l4.69-8.11-7.74,5.28c-.17.12-.4.09-.55-.06-.14-.16-.14-.4,0-.55l6.23-7-8.65,3.61c-.2.09-.42,0-.52-.18s-.06-.42.12-.54l7.51-5.61-9.21,1.8c-.21.04-.42-.08-.47-.28-.07-.2.02-.42.22-.51l8.49-3.98-9.38-.09c-.21,0-.39-.16-.42-.37-.02-.2.12-.4.31-.45l9.12-2.2L.33,23.2c-.21-.04-.35-.24-.32-.44.02-.2.2-.38.4-.38l9.37-.31-8.59-3.77c-.2-.09-.29-.3-.23-.51s.27-.32.47-.29l9.24,1.57-7.65-5.42c-.17-.12-.23-.36-.13-.54.1-.18.32-.27.52-.19l8.74,3.4-6.4-6.85c-.14-.15-.15-.39-.01-.55s.37-.19.54-.09l7.88,5.09-4.89-7.99c-.12-.18-.07-.41.09-.55.16-.13.4-.12.55.03l6.69,6.57-3.18-8.81c-.07-.19.01-.42.21-.52.18-.1.42-.03.53.14l5.22,7.78-1.34-9.28c-.03-.2.1-.41.3-.46.2-.05.42.05.5.25l3.56,8.67.55-9.35c.01-.22.18-.38.39-.39s.39.13.44.33l1.73,9.21L27.98.5c.06-.2.25-.33.46-.3s.36.2.36.42l-.16,9.36,4.21-8.37c.09-.18.31-.28.51-.2.2.08.31.28.27.49l-2.05,9.15,5.81-7.36c.13-.16.37-.2.54-.1.18.11.25.33.16.53l-3.85,8.54,7.18-6.04c.16-.14.4-.13.55.01.15.14.17.38.06.55l-5.49,7.59,8.24-4.48c.18-.1.42-.04.54.13.13.17.09.41-.06.55l-6.91,6.34,8.98-2.73c.2-.06.42.04.51.23.08.19.01.42-.16.53l-8.04,4.82,9.34-.86c.21-.02.4.12.45.32s-.07.41-.27.49l-8.85,3.11,9.32,1.04c.21.02.37.19.37.41s-.15.39-.36.42l-9.29,1.26,8.92,2.89c.2.06.32.27.28.47-.03.2-.23.36-.44.33l-9.36-.64,8.16,4.62c.18.11.27.32.18.53-.08.19-.3.3-.5.25l-9.04-2.5,7.06,6.17c.16.14.18.38.07.55-.12.17-.35.24-.53.14l-8.35-4.26,5.67,7.46c.13.17.12.41-.05.55-.15.15-.39.16-.55.02l-7.31-5.86,4.06,8.44c.09.19.02.42-.15.53-.17.12-.42.08-.54-.09l-5.99-7.2,2.26,9.09c.05.2-.06.41-.25.5-.2.08-.42,0-.52-.19l-4.41-8.26.39,9.36c0,.22-.14.4-.35.43-.21.03-.4-.09-.47-.29l-2.66-8.98-1.5,9.24c-.03.2-.21.36-.42.36l.02-.04ZM23.09,37.96h.06c.2.03.35.18.36.38l.66,7.79,1.26-7.71c.03-.19.2-.33.38-.35.2-.01.37.11.43.3l2.22,7.5-.32-7.81c0-.19.12-.37.31-.42.18-.05.39.03.47.2l3.69,6.89-1.89-7.58c-.05-.19.05-.39.22-.47s.38-.04.51.11l5,6.02-3.39-7.05c-.08-.17-.03-.39.12-.51.15-.12.37-.12.52,0l6.11,4.89-4.74-6.22c-.12-.15-.12-.37.01-.52s.34-.19.51-.11l6.97,3.56-5.89-5.14c-.15-.13-.18-.35-.09-.52.09-.17.29-.26.49-.2l7.55,2.08-6.81-3.85c-.17-.1-.25-.3-.2-.49.06-.18.23-.3.43-.29l7.81.53-7.44-2.41c-.18-.06-.3-.24-.29-.43.02-.19.16-.35.36-.38l7.75-1.06-7.78-.86c-.2-.02-.35-.17-.37-.37s.09-.38.28-.44l7.38-2.59-7.79.72c-.2.02-.37-.1-.44-.29-.06-.18.01-.39.18-.49l6.71-4.02-7.49,2.28c-.18.05-.39-.02-.49-.19-.09-.17-.07-.38.08-.52l5.77-5.28-6.88,3.73c-.17.1-.38.05-.51-.09-.13-.15-.14-.37-.02-.52l4.58-6.34-5.99,5.04c-.15.13-.37.13-.52.01-.15-.12-.21-.32-.13-.51l3.2-7.13-4.84,6.14c-.12.15-.34.2-.51.12s-.27-.28-.23-.46l1.7-7.63-3.51,6.99c-.09.17-.29.27-.47.22-.18-.04-.32-.22-.32-.41l.13-7.82-2.03,7.55c-.05.18-.23.32-.42.31-.2,0-.36-.15-.39-.35l-1.44-7.68-.46,7.8c-.01.19-.16.36-.35.39-.2.03-.38-.08-.45-.26l-2.97-7.24,1.11,7.73c.02.19-.08.38-.27.45-.18.06-.39,0-.5-.16l-4.37-6.49,2.65,7.36c.07.18,0,.39-.17.5-.16.11-.38.09-.52-.05l-5.58-5.48,4.08,6.67c.1.16.07.38-.07.52-.14.14-.36.16-.52.05l-6.57-4.25,5.34,5.72c.14.14.15.36.03.52-.1.16-.31.23-.5.15l-7.29-2.84,6.38,4.52c.16.11.22.32.14.5-.07.18-.27.28-.46.25l-7.72-1.32,7.16,3.15c.17.08.28.27.24.46s-.2.33-.39.33l-7.82.27,7.65,1.64c.2.04.32.2.34.4,0,.19-.13.37-.32.41l-7.6,1.83,7.82.08c.2,0,.36.14.4.32.05.19-.06.39-.23.46l-7.08,3.32,7.68-1.5c.18-.04.38.06.46.24.08.18.02.39-.13.51l-6.26,4.68,7.22-3.02c.18-.08.39-.01.5.14.12.16.1.38-.02.52l-5.2,5.85,6.46-4.41c.16-.11.38-.1.52.04.14.13.17.35.08.52l-3.92,6.77,5.44-5.62c.14-.14.35-.17.52-.06.16.1.24.3.18.49l-2.47,7.42,4.19-6.6c.1-.16.31-.24.5-.17s.3.25.28.44l-.92,7.77,2.78-7.3c.06-.16.22-.27.39-.27l.02.03Z" fill="#fff"/>
  </g>
</svg>